<?xml version="1.0" encoding="utf-8"?>
<!-- Generator: Adobe Illustrator 15.1.0, SVG Export Plug-In . SVG Version: 6.00 Build 0)  -->
<!DOCTYPE svg PUBLIC "-//W3C//DTD SVG 1.1//EN" "http://www.w3.org/Graphics/SVG/1.1/DTD/svg11.dtd">
<svg version="1.1" id="Layer_1" focusable="false" xmlns="http://www.w3.org/2000/svg" xmlns:xlink="http://www.w3.org/1999/xlink"
	 x="0px" y="0px" width="792px" height="1224px" viewBox="0 0 792 1224" enable-background="new 0 0 792 1224" xml:space="preserve"
	>
<path fill="#FFFFFF" d="M792,259.666v704.491c0,24.22-19.623,43.666-43.666,43.666h-201.89V701.276h102.89l15.381-119.507H546.268
	v-76.371c0-34.65,9.547-58.163,59.224-58.163h63.289V340.28c-10.961-1.414-48.439-4.773-92.282-4.773
	c-91.222,0-153.804,55.688-153.804,158.046v88.216H319.452v119.507h103.242V1008H43.666C19.623,1008,0,988.377,0,964.334V259.666
	C0,235.623,19.623,216,43.666,216h704.491C772.377,216,792,235.623,792,259.666z"/>
</svg>
