<?xml version="1.0" encoding="utf-8"?>
<!-- Generator: Adobe Illustrator 15.1.0, SVG Export Plug-In . SVG Version: 6.00 Build 0)  -->
<!DOCTYPE svg PUBLIC "-//W3C//DTD SVG 1.1//EN" "http://www.w3.org/Graphics/SVG/1.1/DTD/svg11.dtd">
<svg version="1.1" id="Layer_1" focusable="false" xmlns="http://www.w3.org/2000/svg" xmlns:xlink="http://www.w3.org/1999/xlink"
	 x="0px" y="0px" width="792px" height="1224px" viewBox="0 0 792 1224" enable-background="new 0 0 792 1224" xml:space="preserve"
	>
<path fill="#FFFFFF" d="M396.177,408.696c-112.436,0-203.127,90.691-203.127,203.127S283.741,814.95,396.177,814.95
	s203.127-90.691,203.127-203.127S508.612,408.696,396.177,408.696z M396.177,743.882c-72.659,0-132.059-59.223-132.059-132.059
	s59.223-132.059,132.059-132.059s132.059,59.223,132.059,132.059S468.836,743.882,396.177,743.882L396.177,743.882z
	 M654.991,400.388c0,26.341-21.215,47.378-47.379,47.378c-26.341,0-47.378-21.214-47.378-47.378
	c0-26.165,21.214-47.379,47.378-47.379S654.991,374.223,654.991,400.388z M789.525,448.474
	c-3.006-63.466-17.502-119.685-63.997-166.002c-46.317-46.318-102.535-60.814-166.002-63.997c-65.41-3.712-261.466-3.712-326.876,0
	c-63.289,3.005-119.507,17.501-166.001,63.82C20.154,328.612,5.834,384.831,2.652,448.297c-3.712,65.41-3.712,261.466,0,326.876
	c3.005,63.467,17.502,119.685,63.997,166.002c46.495,46.318,102.536,60.814,166.001,63.997c65.411,3.712,261.466,3.712,326.876,0
	c63.467-3.006,119.685-17.502,166.002-63.997c46.318-46.317,60.814-102.535,63.997-166.002
	C793.237,709.763,793.237,513.884,789.525,448.474L789.525,448.474z M705.021,845.357c-13.789,34.649-40.484,61.345-75.311,75.311
	c-52.152,20.684-175.902,15.91-233.534,15.91s-181.559,4.597-233.534-15.91c-34.65-13.789-61.344-40.484-75.311-75.311
	c-20.684-52.152-15.911-175.902-15.911-233.534s-4.596-181.559,15.911-233.534c13.79-34.65,40.484-61.344,75.311-75.311
	c52.152-20.684,175.902-15.911,233.534-15.911s181.559-4.596,233.534,15.911c34.649,13.79,61.345,40.484,75.311,75.311
	c20.684,52.152,15.91,175.902,15.91,233.534S725.705,793.382,705.021,845.357z"/>
</svg>
