<?xml version="1.0" encoding="utf-8"?>
<!-- Generator: Adobe Illustrator 15.1.0, SVG Export Plug-In . SVG Version: 6.00 Build 0)  -->
<!DOCTYPE svg PUBLIC "-//W3C//DTD SVG 1.1//EN" "http://www.w3.org/Graphics/SVG/1.1/DTD/svg11.dtd">
<svg version="1.1" id="Layer_1" focusable="false" xmlns="http://www.w3.org/2000/svg" xmlns:xlink="http://www.w3.org/1999/xlink"
	 x="0px" y="0px" width="792px" height="1224px" viewBox="0 0 792 1224" enable-background="new 0 0 792 1224" xml:space="preserve"
	>
<path fill="#FFFFFF" d="M707.143,216H84.857C38.009,216,0,254.009,0,300.857v622.285C0,969.991,38.009,1008,84.857,1008h622.286
	c46.849,0,84.857-38.009,84.857-84.857V300.857C792,254.009,753.991,216,707.143,216z M620.694,496.735
	c0.354,4.95,0.354,10.077,0.354,15.027c0,153.273-116.678,329.882-329.882,329.882c-65.764,0-126.755-19.093-178.023-51.975
	c9.37,1.061,18.386,1.414,27.932,1.414c54.273,0,104.126-18.386,143.903-49.5c-50.914-1.061-93.696-34.474-108.37-80.438
	c17.855,2.651,33.943,2.651,52.329-2.121c-53.036-10.784-92.812-57.456-92.812-113.851v-1.414
	c15.38,8.662,33.413,13.966,52.329,14.673c-32.301-21.485-51.685-57.73-51.622-96.524c0-21.568,5.657-41.368,15.734-58.517
	c57.102,70.361,142.843,116.325,239.014,121.275c-16.44-78.67,42.429-142.489,113.144-142.489c33.412,0,63.466,13.966,84.68,36.595
	c26.165-4.95,51.269-14.674,73.543-27.932c-8.662,26.872-26.871,49.5-50.914,63.82c23.336-2.476,45.964-9.017,66.825-18.032
	C663.123,459.787,643.323,480.295,620.694,496.735z"/>
</svg>
